<?xml version="1.0" encoding="UTF-8" standalone="no"?>
<!-- Created with Inkscape (http://www.inkscape.org/) -->

<svg
   xmlns:dc="http://purl.org/dc/elements/1.1/"
   xmlns:cc="http://creativecommons.org/ns#"
   xmlns:rdf="http://www.w3.org/1999/02/22-rdf-syntax-ns#"
   xmlns:svg="http://www.w3.org/2000/svg"
   xmlns="http://www.w3.org/2000/svg"
   version="1.1"
   width="55"
   height="55"
   id="svg2">
  <defs
     id="defs4">
</defs>
  <metadata
     id="metadata7">
    <rdf:RDF>
      <cc:Work
         rdf:about="">
        <dc:format>image/svg+xml</dc:format>
        <dc:type
           rdf:resource="http://purl.org/dc/dcmitype/StillImage" />
        <dc:title></dc:title>
      </cc:Work>
    </rdf:RDF>
  </metadata>
  <g
     transform="translate(0,-997.36218)"
     id="layer1">
    <polygon
       points="30.991,42.15 29.934,39.754 27.357,39.268 29.311,37.52 28.977,34.92 31.242,36.236 33.611,35.115 33.061,37.678 34.857,39.584 32.25,39.852 "
       transform="translate(-10.864506,961.56442)"
       id="polygon239_1_"
       style="fill:#aaaaaa;fill-opacity:1;fill-rule:evenodd;stroke:#ffffff;stroke-width:1;stroke-linejoin:miter;stroke-opacity:1" />
    <polygon
       points="22.089,40.329 21.489,38.689 23.156,39.211 24.529,38.133 24.55,39.879 26,40.852 24.346,41.41 23.867,43.091 22.825,41.689 21.079,41.755 "
       transform="translate(12.299812,996.03007)"
       id="polygon245_1_"
       style="fill:#aaaaaa;fill-opacity:1;fill-rule:evenodd;stroke:#ffffff;stroke-width:1;stroke-linejoin:miter;stroke-opacity:1" />
    <polygon
       points="33.061,37.678 34.857,39.584 32.25,39.852 30.991,42.15 29.934,39.754 27.357,39.268 29.311,37.52 28.977,34.92 31.242,36.236 33.611,35.115 "
       transform="translate(6.092999,1008.3606)"
       id="polygon239_1_-8"
       style="fill:#aaaaaa;fill-opacity:1;fill-rule:evenodd;stroke:#ffffff;stroke-width:1;stroke-linejoin:miter;stroke-opacity:1" />
    <polygon
       points="31.242,36.236 33.611,35.115 33.061,37.678 34.857,39.584 32.25,39.852 30.991,42.15 29.934,39.754 27.357,39.268 29.311,37.52 28.977,34.92 "
       transform="translate(-20.440333,972.49385)"
       id="polygon239_1_-5"
       style="fill:#aaaaaa;fill-opacity:1;fill-rule:evenodd;stroke:#ffffff;stroke-width:1;stroke-linejoin:miter;stroke-opacity:1" />
    <polygon
       points="24.529,38.133 24.55,39.879 26,40.852 24.346,41.41 23.867,43.091 22.825,41.689 21.079,41.755 22.089,40.329 21.489,38.689 23.156,39.211 "
       transform="translate(-2.206167,978.68352)"
       id="polygon245_1_-3"
       style="fill:#aaaaaa;fill-opacity:1;fill-rule:evenodd;stroke:#ffffff;stroke-width:1;stroke-linejoin:miter;stroke-opacity:1" />
    <polygon
       points="26,40.852 24.346,41.41 23.867,43.091 22.825,41.689 21.079,41.755 22.089,40.329 21.489,38.689 23.156,39.211 24.529,38.133 24.55,39.879 "
       transform="translate(7.127166,968.95018)"
       id="polygon245_1_-7"
       style="fill:#aaaaaa;fill-opacity:1;fill-rule:evenodd;stroke:#ffffff;stroke-width:1;stroke-linejoin:miter;stroke-opacity:1" />
    <polygon
       points="21.489,38.689 23.156,39.211 24.529,38.133 24.55,39.879 26,40.852 24.346,41.41 23.867,43.091 22.825,41.689 21.079,41.755 22.089,40.329 "
       transform="translate(6.1938333,985.61685)"
       id="polygon245_1_-3-1"
       style="fill:#aaaaaa;fill-opacity:1;fill-rule:evenodd;stroke:#ffffff;stroke-width:1;stroke-linejoin:miter;stroke-opacity:1" />
  </g>
</svg>
