<?xml version="1.0" encoding="UTF-8" standalone="no"?>
<!-- Created with Inkscape (http://www.inkscape.org/) -->

<svg
   xmlns:dc="http://purl.org/dc/elements/1.1/"
   xmlns:cc="http://creativecommons.org/ns#"
   xmlns:rdf="http://www.w3.org/1999/02/22-rdf-syntax-ns#"
   xmlns:svg="http://www.w3.org/2000/svg"
   xmlns="http://www.w3.org/2000/svg"
   version="1.1"
   width="55"
   height="55"
   id="svg2">
  <metadata
     id="metadata34">
    <rdf:RDF>
      <cc:Work
         rdf:about="">
        <dc:format>image/svg+xml</dc:format>
        <dc:type
           rdf:resource="http://purl.org/dc/dcmitype/StillImage" />
        <dc:title></dc:title>
      </cc:Work>
    </rdf:RDF>
  </metadata>
  <defs
     id="defs32" />
  <g
     transform="matrix(0.98049088,0,0,1.4028612,0.5365008,-21.18627)"
     id="g2988">
    <path
       d="m 10,50 c 0,0 -2,0 -2,-2 L 8,35 27.5,24 47,35 47,48 c 0,0 0,2 -2,2 z"
       id="path4"
       style="fill:#ffffff;stroke:#010101;stroke-width:1.75" />
    <path
       d="m 33,50 0,-11 c 0,0 0,-2 -2,-2 l -7,0 c 0,0 -2,0 -2,2 l 0,11 z"
       id="path6"
       style="fill:#010101;stroke:#010101;stroke-width:1.75" />
    <line
       style="stroke:#010101;stroke-width:6.75;stroke-linecap:round"
       id="line10"
       y2="21.5"
       x2="27.5"
       y1="33.5"
       x1="6" />
    <line
       style="stroke:#010101;stroke-width:6.75;stroke-linecap:round"
       id="line12"
       y2="21.5"
       x2="27.5"
       y1="33.5"
       x1="49" />
    <line
       style="stroke:#ffffff;stroke-width:3.5;stroke-linecap:round"
       id="line14"
       y2="21.5"
       x2="27.5"
       y1="33.5"
       x1="6" />
    <line
       style="stroke:#ffffff;stroke-width:3.5;stroke-linecap:round"
       id="line16"
       y2="21.5"
       x2="27.5"
       y1="33.5"
       x1="49" />
  </g>
</svg>
