<?xml version="1.0" encoding="UTF-8" standalone="no"?>
<!-- Created with Inkscape (http://www.inkscape.org/) -->

<svg
   xmlns:dc="http://purl.org/dc/elements/1.1/"
   xmlns:cc="http://creativecommons.org/ns#"
   xmlns:rdf="http://www.w3.org/1999/02/22-rdf-syntax-ns#"
   xmlns:svg="http://www.w3.org/2000/svg"
   xmlns="http://www.w3.org/2000/svg"
   version="1.1"
   width="55"
   height="55"
   id="svg2">
  <defs
     id="defs4">
</defs>
  <metadata
     id="metadata7">
    <rdf:RDF>
      <cc:Work
         rdf:about="">
        <dc:format>image/svg+xml</dc:format>
        <dc:type
           rdf:resource="http://purl.org/dc/dcmitype/StillImage" />
        <dc:title></dc:title>
      </cc:Work>
    </rdf:RDF>
  </metadata>
  <g
     transform="translate(0,-997.36218)"
     id="layer1">
    <rect
       width="55"
       height="55"
       x="1.25"
       y="996.11218"
       id="rect3852"
       style="fill:#000000;fill-opacity:1;stroke:#000000;stroke-width:2.5;stroke-linecap:round;stroke-linejoin:miter;stroke-miterlimit:4;stroke-opacity:1;stroke-dasharray:none" />
    <polygon
       points="31.242,36.236 33.611,35.115 33.061,37.678 34.857,39.584 32.25,39.852 30.991,42.15 29.934,39.754 27.357,39.268 29.311,37.52 28.977,34.92 "
       transform="translate(7.6688273,1004.2311)"
       id="polygon239_1_"
       style="fill:#aaaaaa;fill-opacity:1;fill-rule:evenodd;stroke:#ffffff;stroke-width:1;stroke-linejoin:miter;stroke-opacity:1" />
    <polygon
       points="5.143,12.285 0,7.559 6.881,6.352 9.787,0 13.061,6.172 20,6.975 15.143,11.994 16.523,18.842 10.248,15.773 4.163,19.201 "
       transform="translate(9.7601,1005.1024)"
       id="polygon241_1_"
       style="fill:#aaaaaa;fill-opacity:1;fill-rule:evenodd;stroke:#ffffff;stroke-width:1;stroke-linejoin:miter;stroke-opacity:1" />
    <polygon
       points="36.081,8.124 31.334,10.756 30.811,16.159 26.839,12.457 21.539,13.628 23.833,8.71 21.081,4.03 26.471,4.69 30.066,0.627 31.104,5.957 "
       transform="translate(-10.281263,1031.069)"
       id="polygon243_1_"
       style="fill:#aaaaaa;fill-opacity:1;fill-rule:evenodd;stroke:#ffffff;stroke-width:1;stroke-linejoin:miter;stroke-opacity:1" />
    <polygon
       points="24.529,38.133 24.55,39.879 26,40.852 24.346,41.41 23.867,43.091 22.825,41.689 21.079,41.755 22.089,40.329 21.489,38.689 23.156,39.211 "
       transform="translate(7.2331455,985.49672)"
       id="polygon245_1_"
       style="fill:#aaaaaa;fill-opacity:1;fill-rule:evenodd;stroke:#ffffff;stroke-width:1;stroke-linejoin:miter;stroke-opacity:1" />
    <polygon
       points="33.884,26.275 36.906,28.031 40.064,26.537 39.329,29.953 41.727,32.495 38.25,32.852 36.57,35.917 35.16,32.723 31.727,32.073 34.331,29.741 "
       transform="translate(8.1045091,999.96135)"
       id="polygon247_1_"
       style="fill:#aaaaaa;fill-opacity:1;fill-rule:evenodd;stroke:#ffffff;stroke-width:1;stroke-linejoin:miter;stroke-opacity:1" />
    <polygon
       points="30.73,18.5 34.936,16.832 35.943,12.423 38.831,15.907 43.337,15.506 40.915,19.326 42.689,23.486 38.307,22.365 34.896,25.338 34.611,20.825 "
       transform="translate(8.2727273e-4,998.48004)"
       id="polygon249_1_"
       style="fill:#aaaaaa;fill-opacity:1;fill-rule:evenodd;stroke:#ffffff;stroke-width:1;stroke-linejoin:miter;stroke-opacity:1" />
  </g>
</svg>
