<?xml version="1.0" encoding="UTF-8" standalone="no"?>
<!-- Created with Inkscape (http://www.inkscape.org/) -->

<svg
   xmlns:dc="http://purl.org/dc/elements/1.1/"
   xmlns:cc="http://creativecommons.org/ns#"
   xmlns:rdf="http://www.w3.org/1999/02/22-rdf-syntax-ns#"
   xmlns:svg="http://www.w3.org/2000/svg"
   xmlns="http://www.w3.org/2000/svg"
   version="1.1"
   width="55"
   height="55"
   id="svg2">
  <metadata
     id="metadata9">
    <rdf:RDF>
      <cc:Work
         rdf:about="">
        <dc:format>image/svg+xml</dc:format>
        <dc:type
           rdf:resource="http://purl.org/dc/dcmitype/StillImage" />
        <dc:title></dc:title>
      </cc:Work>
    </rdf:RDF>
  </metadata>
  <defs
     id="defs7">
</defs>
  <g
     transform="matrix(0.50104384,0,0,0.50104384,-42.490083,26.327244)"
     id="g3890"
     style="stroke:#ffffff;stroke-width:2.9937501;stroke-miterlimit:4;stroke-opacity:1;stroke-dasharray:none">
    <path
       d="m 127.9375,19.625 c -0.47401,0.1387 -0.95536,0.251638 -1.40625,0.4375 -0.8202,0.338094 -1.61431,0.769726 -2.34375,1.25 -0.72944,0.480274 -1.41094,1.020458 -2.03125,1.625 -0.62031,0.604542 -1.16345,1.257851 -1.65625,1.96875 -0.4928,0.710899 -0.93434,1.481906 -1.28125,2.28125 -0.34691,0.799344 -0.5986,1.630122 -0.78125,2.5 -0.18265,0.869878 -0.28125,1.765 -0.28125,2.6875 0,0.9225 0.0986,1.848872 0.28125,2.71875 0.18265,0.869878 0.43434,1.700656 0.78125,2.5 0.34691,0.799344 0.78845,1.539101 1.28125,2.25 0.4928,0.710899 1.03594,1.395458 1.65625,2 0.62031,0.604542 1.30181,1.144726 2.03125,1.625 0.72944,0.480274 1.52355,0.880656 2.34375,1.21875 0.45089,0.185862 0.93224,0.2988 1.40625,0.4375 5.63272,-1.661441 9.75,-6.718161 9.75,-12.75 0,-6.031839 -4.11728,-11.088559 -9.75,-12.75 z"
       id="path3866"
       style="fill:none;stroke:#ffffff;stroke-width:2.9937501;stroke-linecap:round;stroke-linejoin:miter;stroke-miterlimit:4;stroke-opacity:1;stroke-dasharray:none" />
    <path
       d="m 123.96875,19.03125 c -7.57252,0 -13.71875,5.963748 -13.71875,13.34375 0,7.380002 6.14623,13.375 13.71875,13.375 1.38333,0 2.70979,-0.253655 3.96875,-0.625 -0.47401,-0.1387 -0.95536,-0.251638 -1.40625,-0.4375 -0.8202,-0.338094 -1.61431,-0.738476 -2.34375,-1.21875 -0.72944,-0.480274 -1.41094,-1.020458 -2.03125,-1.625 -0.62031,-0.604542 -1.16345,-1.289101 -1.65625,-2 -0.4928,-0.710899 -0.93434,-1.450656 -1.28125,-2.25 -0.34691,-0.799344 -0.5986,-1.630122 -0.78125,-2.5 -0.18265,-0.869878 -0.28125,-1.79625 -0.28125,-2.71875 0,-0.9225 0.0986,-1.817622 0.28125,-2.6875 0.18265,-0.869878 0.43434,-1.700656 0.78125,-2.5 0.34691,-0.799344 0.78845,-1.570351 1.28125,-2.28125 0.4928,-0.710899 1.03594,-1.364208 1.65625,-1.96875 0.62031,-0.604542 1.30181,-1.144726 2.03125,-1.625 0.72944,-0.480274 1.52355,-0.911906 2.34375,-1.25 0.45089,-0.185862 0.93224,-0.2988 1.40625,-0.4375 -1.25896,-0.371345 -2.58542,-0.59375 -3.96875,-0.59375 z"
       id="path3065-7"
       style="fill:none;stroke:#ffffff;stroke-width:2.9937501;stroke-linecap:round;stroke-linejoin:miter;stroke-miterlimit:4;stroke-opacity:1;stroke-dasharray:none" />
  </g>
  <g
     transform="translate(0.6954487,0.10396288)"
     id="g4003">
    <path
       d="m -44.631148,-20.85041 a 2.1413934,2.1413934 0 1 1 -4.282786,0 2.1413934,2.1413934 0 1 1 4.282786,0 z"
       transform="matrix(0.68979733,0,0,0.68979733,71.482635,29.597081)"
       id="path3067"
       style="fill:#ffffff;fill-opacity:1;stroke:#ffffff;stroke-width:2.17455173;stroke-linecap:round;stroke-linejoin:miter;stroke-miterlimit:4;stroke-opacity:1;stroke-dasharray:none" />
    <path
       d="m 18.258196,5.9733605 a 13.29918,12.961065 0 1 1 -26.5983597,0 13.29918,12.961065 0 1 1 26.5983597,0 z"
       transform="matrix(0.68910334,0,0,0.68910334,35.801786,11.098261)"
       id="path3065-0"
       style="fill:none;stroke:#ffffff;stroke-width:2.17674184;stroke-linecap:round;stroke-linejoin:miter;stroke-miterlimit:4;stroke-opacity:1;stroke-dasharray:none" />
  </g>
  <g
     transform="matrix(0.50129444,0,0,0.50129444,-48.394837,14.917482)"
     id="g3914"
     style="stroke:#ffffff;stroke-width:2.9922533;stroke-miterlimit:4;stroke-opacity:1;stroke-dasharray:none">
    <path
       d="m 18.258196,5.9733605 a 13.29918,12.961065 0 1 1 -26.5983597,0 13.29918,12.961065 0 1 1 26.5983597,0 z"
       transform="matrix(1.0309859,0,0,1.0309859,116.60864,-8.8836296)"
       id="path3065"
       style="fill:none;stroke:#ffffff;stroke-width:2.90232229;stroke-linecap:round;stroke-linejoin:miter;stroke-miterlimit:4;stroke-opacity:1;stroke-dasharray:none" />
    <path
       d="m 121.80246,-15.798981 c 0.22541,26.372951 -0.22541,26.147541 -0.22541,26.147541"
       id="path3894"
       style="fill:none;stroke:#ffffff;stroke-width:2.9922533;stroke-linecap:round;stroke-linejoin:miter;stroke-miterlimit:4;stroke-opacity:1;stroke-dasharray:none" />
    <path
       d="m 108.64751,-2.8063267 c 26.37295,-0.22541 26.14754,0.22541 26.14754,0.22541"
       id="path3894-7"
       style="fill:none;stroke:#ffffff;stroke-width:2.9922533;stroke-linecap:round;stroke-linejoin:miter;stroke-miterlimit:4;stroke-opacity:1;stroke-dasharray:none" />
  </g>
  <polygon
     points="33.611,35.115 33.061,37.678 34.857,39.584 32.25,39.852 30.991,42.15 29.934,39.754 27.357,39.268 29.311,37.52 28.977,34.92 31.242,36.236 "
     transform="translate(-5.607,-9.9)"
     id="polygon239_1_"
     style="fill:#ffffff;fill-opacity:1;fill-rule:evenodd;stroke:#ffffff;stroke-width:1.5;stroke-linejoin:miter;stroke-miterlimit:4;stroke-opacity:1;stroke-dasharray:none" />
  <polygon
     points="20,6.975 15.143,11.994 16.523,18.842 10.248,15.773 4.163,19.201 5.143,12.285 0,7.559 6.881,6.352 9.787,0 13.061,6.172 "
     transform="translate(30.75,30.049)"
     id="polygon241_1_"
     style="fill:#ffffff;fill-opacity:1;fill-rule:evenodd;stroke:#ffffff;stroke-width:1.5;stroke-linejoin:miter;stroke-miterlimit:4;stroke-opacity:1;stroke-dasharray:none" />
  <polygon
     points="40.064,26.537 39.329,29.953 41.727,32.495 38.25,32.852 36.57,35.917 35.16,32.723 31.727,32.073 34.331,29.741 33.884,26.275 36.906,28.031 "
     transform="translate(-25.977,-0.667)"
     id="polygon247_1_"
     style="fill:#ffffff;fill-opacity:1;fill-rule:evenodd;stroke:#ffffff;stroke-width:1.5;stroke-linejoin:miter;stroke-miterlimit:4;stroke-opacity:1;stroke-dasharray:none" />
</svg>
