<?xml version="1.0" encoding="UTF-8" standalone="no"?>
<!-- Created with Inkscape (http://www.inkscape.org/) -->

<svg
   xmlns:dc="http://purl.org/dc/elements/1.1/"
   xmlns:cc="http://creativecommons.org/ns#"
   xmlns:rdf="http://www.w3.org/1999/02/22-rdf-syntax-ns#"
   xmlns:svg="http://www.w3.org/2000/svg"
   xmlns="http://www.w3.org/2000/svg"
   version="1.1"
   width="55"
   height="55"
   id="svg2">
  <defs
     id="defs4" />
  <metadata
     id="metadata7">
    <rdf:RDF>
      <cc:Work
         rdf:about="">
        <dc:format>image/svg+xml</dc:format>
        <dc:type
           rdf:resource="http://purl.org/dc/dcmitype/StillImage" />
        <dc:title></dc:title>
      </cc:Work>
    </rdf:RDF>
  </metadata>
  <g
     transform="translate(0,-0.54111793)"
     id="g3900">
    <polygon
       points="31.242,36.236 33.611,35.115 33.061,37.678 34.857,39.584 32.25,39.852 30.991,42.15 29.934,39.754 27.357,39.268 29.311,37.52 28.977,34.92 "
       transform="translate(11.143,-25.65)"
       id="polygon239_1_"
       style="fill:#aa0000;fill-opacity:1;fill-rule:evenodd;stroke:#ff0000;stroke-width:1;stroke-linejoin:miter;stroke-opacity:1" />
    <polygon
       points="26.839,12.457 21.539,13.628 23.833,8.71 21.081,4.03 26.471,4.69 30.066,0.627 31.104,5.957 36.081,8.124 31.334,10.756 30.811,16.159 "
       transform="translate(-15.581,8.341)"
       id="polygon243_1_"
       style="fill:#aa0000;fill-opacity:1;fill-rule:evenodd;stroke:#ff0000;stroke-width:1;stroke-linejoin:miter;stroke-opacity:1" />
    <polygon
       points="41.727,32.495 38.25,32.852 36.57,35.917 35.16,32.723 31.727,32.073 34.331,29.741 33.884,26.275 36.906,28.031 40.064,26.537 39.329,29.953 "
       transform="translate(7.773,-2.417)"
       id="polygon247_1_"
       style="fill:#aa0000;fill-opacity:1;fill-rule:evenodd;stroke:#ff0000;stroke-width:1;stroke-linejoin:miter;stroke-opacity:1" />
    <g
       transform="matrix(0.5548979,0,0,0.5548979,4.7403078,26.437368)"
       id="toolbar_x5F_view"
       style="fill:#aa0000;fill-opacity:1;stroke:#ff0000;stroke-opacity:1;display:block">
	<g
   id="g3102"
   style="fill:#aa0000;fill-opacity:1;stroke:#ff0000;stroke-opacity:1">
		<path
   d="m 21.937,27.499 c 0,3.07 2.492,5.562 5.562,5.562 3.067,0 5.559,-2.492 5.559,-5.562 0,-3.067 -2.491,-5.564 -5.559,-5.564 -3.07,0 -5.562,2.497 -5.562,5.564 z"
   id="path3104"
   style="fill:#aa0000;fill-opacity:1;stroke:#ff0000;stroke-opacity:1" />

		<path
   d="m 27.499,13.037 c -14.476,0 -26.531,14.432 -26.531,14.432 0,0 12.056,14.504 26.531,14.494 14.474,-0.01 26.533,-14.513 26.533,-14.513 0,0 -12.059,-14.425 -26.533,-14.413 z M 27.5,36.562 c -5.003,0 -9.063,-4.061 -9.063,-9.063 0,-4.998 4.061,-9.066 9.063,-9.066 4.997,0 9.058,4.068 9.058,9.066 0,5.003 -4.061,9.063 -9.058,9.063 z"
   id="path3106"
   style="fill:#aa0000;fill-opacity:1;stroke:#ff0000;stroke-opacity:1" />

	</g>

</g>
    <path
       d="m 23.502599,15.055195 c 0.102897,-3.65596 2.543803,-6.662722 5.7017,-8.0426145 3.157897,-1.379892 8,1.0000005 8,1.0000005 0,0 -4.875835,3.28072 -5,6.957386 -0.124165,3.676666 1.29154,5.103819 5,7.042614 -1.249803,1.592367 -5.165819,1.873434 -8,1 -2.834181,-0.873434 -5.804597,-4.301426 -5.7017,-7.957386 z"
       id="path3898"
       style="fill:#aa0000;fill-opacity:1;stroke:#ff0000;stroke-width:1px;stroke-linecap:butt;stroke-linejoin:miter;stroke-opacity:1" />
  </g>
</svg>
